<mxfile host="app.diagrams.net" agent="Mozilla/5.0 (Windows NT 10.0; Win64; x64) AppleWebKit/537.36 (KHTML, like Gecko) Chrome/138.0.0.0 Safari/537.36" version="28.0.6">
  <diagram name="Page-1" id="6cH1YbTs63Q7uYf-ajGN">
    <mxGraphModel dx="1426" dy="777" grid="1" gridSize="10" guides="1" tooltips="1" connect="1" arrows="1" fold="1" page="1" pageScale="1" pageWidth="827" pageHeight="1169" math="0" shadow="0">
      <root>
        <mxCell id="0" />
        <mxCell id="1" parent="0" />
        <mxCell id="Khz6LekN1ubTdY-4sU4D-3" style="edgeStyle=orthogonalEdgeStyle;rounded=0;orthogonalLoop=1;jettySize=auto;html=1;" edge="1" parent="1" source="Khz6LekN1ubTdY-4sU4D-1">
          <mxGeometry relative="1" as="geometry">
            <mxPoint x="405" y="290" as="targetPoint" />
          </mxGeometry>
        </mxCell>
        <mxCell id="Khz6LekN1ubTdY-4sU4D-1" value="Config Loader" style="rounded=0;whiteSpace=wrap;html=1;" vertex="1" parent="1">
          <mxGeometry x="290" y="180" width="230" height="60" as="geometry" />
        </mxCell>
        <mxCell id="Khz6LekN1ubTdY-4sU4D-9" value="" style="edgeStyle=orthogonalEdgeStyle;rounded=0;orthogonalLoop=1;jettySize=auto;html=1;" edge="1" parent="1" source="Khz6LekN1ubTdY-4sU4D-4" target="Khz6LekN1ubTdY-4sU4D-1">
          <mxGeometry relative="1" as="geometry" />
        </mxCell>
        <mxCell id="Khz6LekN1ubTdY-4sU4D-4" value="Config" style="rounded=0;whiteSpace=wrap;html=1;" vertex="1" parent="1">
          <mxGeometry x="290" y="290" width="230" height="60" as="geometry" />
        </mxCell>
        <mxCell id="Khz6LekN1ubTdY-4sU4D-5" value="MachineParser" style="rounded=0;whiteSpace=wrap;html=1;" vertex="1" parent="1">
          <mxGeometry x="345" y="400" width="120" height="60" as="geometry" />
        </mxCell>
        <mxCell id="Khz6LekN1ubTdY-4sU4D-10" value="" style="endArrow=classic;html=1;rounded=0;exitX=0.5;exitY=1;exitDx=0;exitDy=0;" edge="1" parent="1" source="Khz6LekN1ubTdY-4sU4D-4" target="Khz6LekN1ubTdY-4sU4D-5">
          <mxGeometry width="50" height="50" relative="1" as="geometry">
            <mxPoint x="390" y="430" as="sourcePoint" />
            <mxPoint x="250" y="490" as="targetPoint" />
          </mxGeometry>
        </mxCell>
        <mxCell id="Khz6LekN1ubTdY-4sU4D-11" value="Main Class Entry Point" style="rounded=0;whiteSpace=wrap;html=1;" vertex="1" parent="1">
          <mxGeometry x="302.5" y="40" width="205" height="80" as="geometry" />
        </mxCell>
        <mxCell id="Khz6LekN1ubTdY-4sU4D-12" value="" style="endArrow=classic;html=1;rounded=0;exitX=0.5;exitY=1;exitDx=0;exitDy=0;entryX=0.5;entryY=0;entryDx=0;entryDy=0;" edge="1" parent="1" target="Khz6LekN1ubTdY-4sU4D-1">
          <mxGeometry width="50" height="50" relative="1" as="geometry">
            <mxPoint x="413" y="120" as="sourcePoint" />
            <mxPoint x="413" y="170" as="targetPoint" />
            <Array as="points">
              <mxPoint x="413" y="140" />
              <mxPoint x="413" y="150" />
            </Array>
          </mxGeometry>
        </mxCell>
        <mxCell id="Khz6LekN1ubTdY-4sU4D-13" value="CSV" style="ellipse;whiteSpace=wrap;html=1;" vertex="1" parent="1">
          <mxGeometry x="140" y="505" width="120" height="80" as="geometry" />
        </mxCell>
        <mxCell id="Khz6LekN1ubTdY-4sU4D-14" value="TXT" style="ellipse;whiteSpace=wrap;html=1;" vertex="1" parent="1">
          <mxGeometry x="530" y="510" width="120" height="80" as="geometry" />
        </mxCell>
        <mxCell id="Khz6LekN1ubTdY-4sU4D-15" value="" style="endArrow=classic;html=1;rounded=0;exitX=0.442;exitY=1.067;exitDx=0;exitDy=0;entryX=0.708;entryY=0.025;entryDx=0;entryDy=0;entryPerimeter=0;exitPerimeter=0;" edge="1" parent="1" source="Khz6LekN1ubTdY-4sU4D-5" target="Khz6LekN1ubTdY-4sU4D-13">
          <mxGeometry width="50" height="50" relative="1" as="geometry">
            <mxPoint x="430" y="480" as="sourcePoint" />
            <mxPoint x="430" y="530" as="targetPoint" />
          </mxGeometry>
        </mxCell>
        <mxCell id="Khz6LekN1ubTdY-4sU4D-16" value="" style="endArrow=classic;html=1;rounded=0;exitX=0.5;exitY=1;exitDx=0;exitDy=0;entryX=0;entryY=0;entryDx=0;entryDy=0;" edge="1" parent="1" source="Khz6LekN1ubTdY-4sU4D-5" target="Khz6LekN1ubTdY-4sU4D-14">
          <mxGeometry width="50" height="50" relative="1" as="geometry">
            <mxPoint x="733" y="500" as="sourcePoint" />
            <mxPoint x="560" y="543" as="targetPoint" />
          </mxGeometry>
        </mxCell>
        <mxCell id="Khz6LekN1ubTdY-4sU4D-17" value="Files" style="rounded=0;whiteSpace=wrap;html=1;" vertex="1" parent="1">
          <mxGeometry x="610" y="40" width="120" height="60" as="geometry" />
        </mxCell>
        <mxCell id="Khz6LekN1ubTdY-4sU4D-19" value="" style="endArrow=classic;html=1;rounded=0;entryX=1;entryY=0.75;entryDx=0;entryDy=0;exitX=0;exitY=0.75;exitDx=0;exitDy=0;" edge="1" parent="1" source="Khz6LekN1ubTdY-4sU4D-17" target="Khz6LekN1ubTdY-4sU4D-11">
          <mxGeometry width="50" height="50" relative="1" as="geometry">
            <mxPoint x="390" y="430" as="sourcePoint" />
            <mxPoint x="440" y="380" as="targetPoint" />
          </mxGeometry>
        </mxCell>
      </root>
    </mxGraphModel>
  </diagram>
</mxfile>
